<svg xmlns="http://www.w3.org/2000/svg" xmlns:xlink="http://www.w3.org/1999/xlink" width="140" height="98.663" viewBox="0 0 140 98.663">
  <defs>
    <filter id="ECO_MAT" x="0" y="25.681" width="140" height="48" filterUnits="userSpaceOnUse">
      <feOffset dx="5" dy="3" input="SourceAlpha"/>
      <feGaussianBlur stdDeviation="3" result="blur"/>
      <feFlood flood-opacity="0.161"/>
      <feComposite operator="in" in2="blur"/>
      <feComposite in="SourceGraphic"/>
    </filter>
  </defs>
  <g id="logo-white" transform="translate(-275.949 -3328.665)">
    <g id="Subtraction_8" data-name="Subtraction 8" transform="translate(295.94 3424.697) rotate(-90)" fill="none">
      <path d="M48.016,93.2a49.812,49.812,0,0,1-9.677-.947A48.55,48.55,0,0,1,21.17,85.242a48.079,48.079,0,0,1-7.106-5.691,47.264,47.264,0,0,1-5.863-6.9,46.2,46.2,0,0,1-4.427-7.915A45.272,45.272,0,0,1,0,46.811H7.649a38.3,38.3,0,0,0,3.183,15.258,39.043,39.043,0,0,0,3.735,6.688,39.914,39.914,0,0,0,4.947,5.828,40.658,40.658,0,0,0,12.876,8.439,41.2,41.2,0,0,0,7.6,2.294,42.058,42.058,0,0,0,16.328,0,40.9,40.9,0,0,0,14.485-5.925,40.553,40.553,0,0,0,6-4.808,39.909,39.909,0,0,0,4.946-5.828,39.02,39.02,0,0,0,3.735-6.688,38.431,38.431,0,0,0,0-30.654,39.02,39.02,0,0,0-3.735-6.688A39.891,39.891,0,0,0,76.8,18.9,40.67,40.67,0,0,0,63.926,10.46a41.2,41.2,0,0,0-7.6-2.294,41.937,41.937,0,0,0-8.164-.8H47.99V0h.026a49.783,49.783,0,0,1,9.677.947A48.532,48.532,0,0,1,74.862,7.959a48.086,48.086,0,0,1,7.106,5.69,47.266,47.266,0,0,1,5.863,6.9,46.168,46.168,0,0,1,4.427,7.916,45.416,45.416,0,0,1,0,36.278,46.147,46.147,0,0,1-4.427,7.915,47.247,47.247,0,0,1-5.863,6.9,48.189,48.189,0,0,1-15.262,9.987,48.87,48.87,0,0,1-9.013,2.716A49.812,49.812,0,0,1,48.016,93.2Z" stroke="none"/>
      <path d="M 48.0158576965332 92.19989776611328 C 51.2078971862793 92.19989776611328 54.39824295043945 91.88787841796875 57.49811172485352 91.27255249023438 C 60.51737976074219 90.67272186279297 63.48759078979492 89.77783203125 66.32627105712891 88.61272430419922 C 69.11244201660156 87.46925354003906 71.79982757568359 86.05368041992188 74.31381988525391 84.40529632568359 C 76.80351257324219 82.77293395996094 79.14456176757812 80.89829254150391 81.27201843261719 78.83335876464844 C 83.39956665039062 76.76870727539062 85.3304443359375 74.49760437011719 87.01105499267578 72.08303070068359 C 88.70824432373047 69.64525604248047 90.16535186767578 67.03994750976562 91.34198760986328 64.33927154541016 C 92.54084777832031 61.58924102783203 93.46138000488281 58.71132278442383 94.07803344726562 55.78533554077148 C 94.71116638183594 52.78330993652344 95.03218841552734 49.69290924072266 95.03218841552734 46.59994888305664 C 95.03218841552734 43.50684356689453 94.71116638183594 40.41657638549805 94.0780029296875 37.41477584838867 C 93.46147155761719 34.48916244506836 92.54095458984375 31.61124229431152 91.34191131591797 28.86078834533691 C 90.16542053222656 26.16054916381836 88.70829772949219 23.55509567260742 87.01103210449219 21.11682891845703 C 85.32968139648438 18.70158958435059 83.39878845214844 16.43045616149902 81.27201843261719 14.36653518676758 C 79.14402008056641 12.3014554977417 76.80294036865234 10.42690849304199 74.31378936767578 8.794948577880859 C 71.80039215087891 7.14692211151123 69.11296844482422 5.731215476989746 66.32624816894531 4.587162017822266 C 63.48708343505859 3.421842098236084 60.51691055297852 2.527095556259155 57.49814987182617 1.927735567092896 C 54.71380615234375 1.37469494342804 51.85624694824219 1.066581010818481 48.99002075195312 1.009668231010437 L 48.99002838134766 6.373476982116699 C 51.52558135986328 6.422416210174561 54.05362319946289 6.694671154022217 56.51669692993164 7.184642314910889 C 59.18068313598633 7.714735507965088 61.80137634277344 8.505429267883301 64.30617523193359 9.534882545471191 C 66.76512145996094 10.54616260528564 69.13684844970703 11.79761600494385 71.35546875 13.25450897216797 C 73.55363464355469 14.69802856445312 75.62062835693359 16.35574913024902 77.49899291992188 18.18154907226562 C 79.37747192382812 20.00710868835449 81.08347320556641 22.01705551147461 82.56948089599609 24.15540313720703 C 84.07003021240234 26.31385612487793 85.35894775390625 28.62197494506836 86.40045928955078 31.01562881469727 C 87.461181640625 33.45322799682617 88.27604675292969 36.00493621826172 88.82247161865234 38.59994888305664 C 89.38271331787109 41.26178741455078 89.66677856445312 44.00106811523438 89.66677856445312 46.7417106628418 C 89.66677856445312 49.48197555541992 89.38271331787109 52.22124099731445 88.82245635986328 54.88353729248047 C 88.27616119384766 57.47784042358398 87.46129608154297 60.02954864501953 86.40047454833984 62.46777725219727 C 85.35894012451172 64.86148071289062 84.07000732421875 67.16958618164062 82.56958770751953 69.32785797119141 C 81.084228515625 71.46527099609375 79.37825775146484 73.47520446777344 77.49906158447266 75.30180358886719 C 75.61928558349609 77.12892150878906 73.55224609375 78.78665924072266 71.35555267333984 80.22882843017578 C 69.13835144042969 81.68516540527344 66.7666015625 82.9366455078125 64.30596160888672 83.94860076904297 C 61.8014030456543 84.97795867919922 59.18070983886719 85.76866912841797 56.51664352416992 86.29877471923828 C 53.78408432006836 86.84233856201172 50.97171020507812 87.11795043945312 48.15761947631836 87.11795043945312 C 45.34353637695312 87.11795043945312 42.53116607666016 86.84233856201172 39.79854965209961 86.29875946044922 C 37.13473892211914 85.76874542236328 34.51404571533203 84.97804260253906 32.00908279418945 83.94850921630859 C 29.54899215698242 82.93679046630859 27.17713737487793 81.68532562255859 24.95944404602051 80.22891235351562 C 22.76252555847168 78.78634643554688 20.69564437866211 77.12863159179688 18.8162841796875 75.30187225341797 C 16.93828392028809 73.47681427001953 15.23219108581543 71.46689605712891 13.74535179138184 69.32791137695312 C 12.2448844909668 67.16904449462891 10.95609760284424 64.8609619140625 9.914751052856445 62.46773529052734 C 8.853951454162598 60.02949523925781 8.039084434509277 57.47781372070312 7.492764472961426 54.88341522216797 C 7.005458354949951 52.56784057617188 6.727053165435791 50.19333267211914 6.662877559661865 47.81073379516602 L 1.015931010246277 47.81073379516602 C 1.088742733001709 50.49666976928711 1.4034264087677 53.17463302612305 1.953698039054871 55.78534698486328 C 2.570738077163696 58.71134948730469 3.491284608840942 61.58934783935547 4.689777851104736 64.33937835693359 C 5.866737842559814 67.03992462158203 7.3238844871521 69.64529418945312 9.020710945129395 72.08306884765625 C 10.70207118988037 74.49832153320312 12.63296508789062 76.76945495605469 14.75980472564697 78.83342742919922 C 16.8865909576416 80.897705078125 19.22765731811523 82.77237701416016 21.71795082092285 84.40531158447266 C 24.23187065124512 86.05366516113281 26.91925811767578 87.46925354003906 29.70548439025879 88.61273193359375 C 32.54415130615234 89.77783966064453 35.51435089111328 90.67272186279297 38.5334587097168 91.27250671386719 C 41.63348388671875 91.88787841796875 44.82382965087891 92.19989776611328 48.0158576965332 92.19989776611328 M 48.0158576965332 93.19989776611328 C 44.75860595703125 93.19989776611328 41.50276565551758 92.88143920898438 38.33875274658203 92.25337219238281 C 35.25636291503906 91.64101409912109 32.22396469116211 90.72737884521484 29.32577896118164 89.537841796875 C 26.48079109191895 88.3702392578125 23.73665809631348 86.92475891113281 21.16961860656738 85.2415771484375 C 18.62637710571289 83.57390594482422 16.2354850769043 81.65932464599609 14.06332492828369 79.55100250244141 C 11.89061832427979 77.44252014160156 9.917911529541016 75.12217712402344 8.199991226196289 72.65440368652344 C 6.465671539306641 70.16276550292969 4.976231575012207 67.49960327148438 3.77305793762207 64.73889923095703 C 2.547524690628052 61.92681503295898 1.606204748153687 58.98382949829102 0.9752179980278015 55.99169540405273 C 0.3423780202865601 52.98925399780273 0.01427135616540909 49.90033721923828 4.689127763413126e-06 46.81073379516602 L 7.648538112640381 46.81073379516602 C 7.653271198272705 49.45833587646484 7.929951190948486 52.10496139526367 8.471324920654297 54.67748260498047 C 9.003711700439453 57.20569610595703 9.797871589660645 59.69249725341797 10.83172512054443 62.06879043579102 C 11.8468713760376 64.40181732177734 13.10343170166016 66.65213775634766 14.56649780273438 68.75718688964844 C 16.01676559448242 70.84357452392578 17.68107223510742 72.80424499511719 19.51320457458496 74.58472442626953 C 21.34725761413574 76.36743927001953 23.36429786682129 77.98517608642578 25.50832557678223 79.39300537109375 C 27.67295074462891 80.8145751953125 29.98808479309082 82.03610992431641 32.38943099975586 83.02366638183594 C 34.83449935913086 84.02857208251953 37.39295196533203 84.80052185058594 39.99369812011719 85.31798553466797 C 42.66215133666992 85.84880065917969 45.40889739990234 86.11795043945312 48.15761947631836 86.11795043945312 C 50.90635299682617 86.11795043945312 53.65309906005859 85.84880065917969 56.32153701782227 85.31798553466797 C 58.92230987548828 84.80048370361328 61.48076629638672 84.02857208251953 63.92581939697266 83.02366638183594 C 66.32746887207031 82.03597259521484 68.64248657226562 80.81444549560547 70.80654907226562 79.39300537109375 C 72.95050811767578 77.98545837402344 74.96768188476562 76.36772155761719 76.80205535888672 74.58472442626953 C 78.63528442382812 72.80281829833984 80.29949951171875 70.8421630859375 81.74840545654297 68.75718688964844 C 83.21145629882812 66.65267181396484 84.4681396484375 64.40235900878906 85.48351287841797 62.06879043579102 C 86.51741790771484 59.69242858886719 87.31155395507812 57.20564270019531 87.84391021728516 54.67748260498047 C 88.38990783691406 52.08296203613281 88.66677856445312 49.41299057006836 88.66677856445312 46.7417106628418 C 88.66677856445312 44.0700569152832 88.38990783691406 41.40008163452148 87.84391021728516 38.805908203125 C 87.31141662597656 36.27705383300781 86.51725769042969 33.79026794433594 85.48351287841797 31.41462898254395 C 84.4681396484375 29.08104133605957 83.21145629882812 26.83074951171875 81.74840545654297 24.72621536254883 C 80.29880523681641 22.64026832580566 78.63460540771484 20.67960166931152 76.80205535888672 18.898681640625 C 74.96892547607422 17.11684226989746 72.95172119140625 15.49910926818848 70.80654907226562 14.09038925170898 C 68.64104461669922 12.66837596893311 66.32603454589844 11.44684219360352 63.92581939697266 10.4597225189209 C 61.48076629638672 9.454829216003418 58.92230987548828 8.68292236328125 56.32153701782227 8.16541576385498 C 53.65308380126953 7.634588718414307 50.90635299682617 7.365442276000977 48.15761947631836 7.365442276000977 C 48.10175323486328 7.365442276000977 48.04587173461914 7.365562438964844 47.99003219604492 7.36578893661499 L 47.99001693725586 2.888305607484654e-05 L 48.01587295532227 2.216389930254081e-06 C 51.27377700805664 2.216389930254081e-06 54.52961730957031 0.3185755610466003 57.69296646118164 0.9468955397605896 C 60.77474975585938 1.558762192726135 63.80717849731445 2.47226881980896 66.70594787597656 3.662055492401123 C 69.55148315429688 4.830255508422852 72.29560089111328 6.275842189788818 74.86212158203125 7.958682060241699 C 77.40409851074219 9.625282287597656 79.79502105712891 11.53974914550781 81.96842956542969 13.64889526367188 C 84.14116668701172 15.75741577148438 86.11386108398438 18.07776260375977 87.83174896240234 20.54549598693848 C 89.56651306152344 23.0376148223877 91.05595397949219 25.70089530944824 92.25867462158203 28.46136283874512 C 93.48468780517578 31.273681640625 94.42601776123047 34.21666717529297 95.05651092529297 37.20857620239258 C 95.70394134521484 40.27797698974609 96.03218841552734 43.43769454956055 96.03218841552734 46.59994888305664 C 96.03218841552734 49.76205444335938 95.70394134521484 52.92189407348633 95.05651092529297 55.99169540405273 C 94.42588806152344 58.98396301269531 93.48452758789062 61.92693710327148 92.25867462158203 64.73889923095703 C 91.05590057373047 67.49956512451172 89.56647491455078 70.1627197265625 87.83174896240234 72.65440368652344 C 86.11461639404297 75.12142944335938 84.14191436767578 77.4417724609375 81.96842956542969 79.55100250244141 C 79.79553985595703 81.66004180908203 77.40461730957031 83.57460021972656 74.86212158203125 85.2415771484375 C 72.29509735107422 86.92473602294922 69.55099487304688 88.37021636962891 66.70594787597656 89.537841796875 C 63.80776596069336 90.72737884521484 60.77535247802734 91.64101409912109 57.69296646118164 92.25337219238281 C 54.52896499633789 92.88143920898438 51.27312469482422 93.19989776611328 48.0158576965332 93.19989776611328 Z" stroke="none" fill="#fff"/>
    </g>
    <g id="Subtraction_9" data-name="Subtraction 9" transform="translate(390.23 3378.924) rotate(135)" fill="none">
      <path d="M34.227,66.435a35.493,35.493,0,0,1-6.9-.675,34.6,34.6,0,0,1-12.239-5,34.265,34.265,0,0,1-5.065-4.056,33.707,33.707,0,0,1-4.18-4.916,32.928,32.928,0,0,1-3.156-5.643A32.257,32.257,0,0,1,0,33.342H5.452a27.3,27.3,0,0,0,2.269,10.9,27.821,27.821,0,0,0,2.662,4.768,28.46,28.46,0,0,0,3.526,4.154,28.971,28.971,0,0,0,9.178,6.015,29.339,29.339,0,0,0,5.42,1.635,29.974,29.974,0,0,0,11.639,0,29.164,29.164,0,0,0,10.325-4.223,28.924,28.924,0,0,0,4.273-3.428,28.459,28.459,0,0,0,3.526-4.154,27.849,27.849,0,0,0,2.662-4.768,27.4,27.4,0,0,0,0-21.851,27.858,27.858,0,0,0-2.662-4.768,28.483,28.483,0,0,0-3.526-4.154,28.979,28.979,0,0,0-9.178-6.015,29.341,29.341,0,0,0-5.42-1.635,29.9,29.9,0,0,0-5.819-.57H34.2V0h.026a35.491,35.491,0,0,1,6.9.675,34.606,34.606,0,0,1,12.239,5,34.266,34.266,0,0,1,5.065,4.056,33.69,33.69,0,0,1,4.18,4.916,32.9,32.9,0,0,1,3.156,5.642,32.371,32.371,0,0,1,0,25.86,32.9,32.9,0,0,1-3.156,5.643,33.691,33.691,0,0,1-4.18,4.916,34.361,34.361,0,0,1-10.879,7.119,34.8,34.8,0,0,1-6.425,1.935A35.491,35.491,0,0,1,34.227,66.435Z" stroke="none"/>
      <path d="M 34.22660446166992 65.43477630615234 C 36.48352432250977 65.43477630615234 38.73872756958008 65.21417236328125 40.9295768737793 64.77910614013672 C 43.06425476074219 64.35524749755859 45.16362762451172 63.72282409667969 47.16943740844727 62.89936447143555 C 49.13802719116211 62.09136581420898 51.03749465942383 61.09074401855469 52.81503677368164 59.92532348632812 C 54.57573699951172 58.77074432373047 56.23007583618164 57.44606399536133 57.73218536376953 55.98799514770508 C 59.23533630371094 54.52926254272461 60.59973526000977 52.92448425292969 61.7874870300293 51.21823501586914 C 62.98654556274414 49.49573516845703 64.01591491699219 47.65514373779297 64.84707641601562 45.74738311767578 C 65.69391632080078 43.8046760559082 66.34418487548828 41.77192306518555 66.77983856201172 39.70557403564453 C 67.22705841064453 37.58466339111328 67.45381927490234 35.40167617797852 67.45381927490234 33.21722412109375 C 67.45381927490234 31.03304481506348 67.22705841064453 28.85017395019531 66.77980804443359 26.72918510437012 C 66.34433746337891 24.66333389282227 65.69405364990234 22.63045501708984 64.84700775146484 20.68694496154785 C 64.01534271240234 18.77840423583984 62.98598480224609 16.93793487548828 61.78744506835938 15.2165641784668 C 60.59973526000977 13.51035404205322 59.23533630371094 11.90557479858398 57.73207473754883 10.44672393798828 C 56.2292366027832 8.987944602966309 54.57489395141602 7.663134574890137 52.81505584716797 6.509144306182861 C 51.03850555419922 5.344354152679443 49.1390266418457 4.343854427337646 47.16931533813477 3.535404443740845 C 45.16363525390625 2.711984395980835 43.06426620483398 2.079554319381714 40.92948532104492 1.655674338340759 C 39.05375289916992 1.283166885375977 37.13074111938477 1.067882299423218 35.20071792602539 1.013669967651367 L 35.20072555541992 4.262453556060791 C 36.93268585205078 4.311200141906738 38.65828323364258 4.504779815673828 40.34223556518555 4.839734554290771 C 42.26017761230469 5.221274375915527 44.14613723754883 5.790294170379639 45.94778442382812 6.53102445602417 C 47.71793746948242 7.258954524993896 49.42493438720703 8.159543991088867 51.02139663696289 9.207804679870605 C 52.60197448730469 10.2457447052002 54.08953475952148 11.4387845993042 55.44288635253906 12.7538948059082 C 56.79472732543945 14.06796455383301 58.02284622192383 15.51481437683105 59.09323501586914 17.05440521240234 C 60.1730842590332 18.60822486877441 61.10104751586914 20.27003479003906 61.85144424438477 21.9939136505127 C 62.61576461791992 23.75112342834473 63.20246505737305 25.58866500854492 63.59521484375 27.45529365539551 C 63.99894714355469 29.37210464477539 64.20365905761719 31.34472465515137 64.20365905761719 33.31836318969727 C 64.20365905761719 35.29176330566406 63.99894714355469 37.26426315307617 63.59526443481445 39.18083572387695 C 63.20248413085938 41.04799270629883 62.61577606201172 42.88557434082031 61.85137557983398 44.64265441894531 C 61.10122680664062 46.36631393432617 60.17325592041016 48.02825546264648 59.09314727783203 49.58246612548828 C 58.02252578735352 51.12240600585938 56.79437637329102 52.56916427612305 55.44289398193359 53.88245391845703 C 54.09011459350586 55.19741439819336 52.60251617431641 56.3906135559082 51.02138519287109 57.4289436340332 C 49.42489624023438 58.47722244262695 47.7178955078125 59.37780380249023 45.94775772094727 60.10570526123047 C 44.14609527587891 60.84644317626953 42.26012420654297 61.41546249389648 40.34224700927734 61.79696273803711 C 38.3754768371582 62.18819427490234 36.35190582275391 62.38655471801758 34.32775497436523 62.38654327392578 C 32.30329513549805 62.38654327392578 30.27959632873535 62.18817520141602 28.31287574768066 61.79695510864258 C 26.39493560791016 61.41544342041016 24.50896644592285 60.8464241027832 22.70732498168945 60.10567474365234 C 20.93715667724609 59.37775421142578 19.23016548156738 58.47716522216797 17.63362503051758 57.42882537841797 C 16.05189514160156 56.38988494873047 14.56433582305908 55.19670486450195 13.21234607696533 53.88253402709961 C 11.8607759475708 52.56914520263672 10.63262557983398 51.12238311767578 9.56187629699707 49.58229446411133 C 8.481446266174316 48.02759552001953 7.553575992584229 46.36558532714844 6.804145812988281 44.64266586303711 C 6.039625644683838 42.88622283935547 5.452765941619873 41.048583984375 5.059895992279053 39.18103408813477 C 4.726223945617676 37.59679412841797 4.528573036193848 35.97355270385742 4.470192909240723 34.34233093261719 L 1.019774079322815 34.34232711791992 C 1.084094405174255 36.15056991577148 1.303215146064758 37.95023345947266 1.6733558177948 39.7055549621582 C 2.109005928039551 41.77188491821289 2.759285926818848 43.80463409423828 3.60619592666626 45.74752426147461 C 4.436645984649658 47.65366363525391 5.46604585647583 49.49430465698242 6.665665626525879 51.21812438964844 C 7.854235649108887 52.92519378662109 9.218655586242676 54.52999496459961 10.721116065979 55.98804473876953 C 12.22321605682373 57.44610595703125 13.87755584716797 58.77078247070312 15.63811588287354 59.92525482177734 C 17.41568565368652 61.09070587158203 19.31515502929688 62.09133529663086 21.28384590148926 62.89937591552734 C 23.28971672058105 63.72287368774414 25.38896560668945 64.35530090332031 27.52329635620117 64.77910614013672 C 29.71412658691406 65.21417236328125 31.96944618225098 65.43477630615234 34.22660446166992 65.43477630615234 M 34.22660446166992 66.43477630615234 C 31.90416526794434 66.43477630615234 29.58330535888672 66.20772552490234 27.32851600646973 65.75995635986328 C 25.13105583190918 65.32361602783203 22.96955490112305 64.67242431640625 20.90406608581543 63.82445526123047 C 18.8767261505127 62.99233245849609 16.9205265045166 61.96182250976562 15.08981609344482 60.76153564453125 C 13.27626609802246 59.57232284545898 11.5720853805542 58.20770263671875 10.0246057510376 56.70559310913086 C 8.476346015930176 55.20309448242188 7.07011604309082 53.5490837097168 5.844995975494385 51.78952407836914 C 4.607775688171387 50.01167297363281 3.546085834503174 48.11323547363281 2.689425706863403 46.14693450927734 C 1.815555810928345 44.14220428466797 1.144485831260681 42.04442596435547 0.6948658227920532 39.9118537902832 C 0.2422758191823959 37.76552581787109 0.008485822938382626 35.55520248413086 5.822753792017465e-06 33.34232330322266 L 5.451875686645508 33.34233474731445 C 5.453526020050049 35.23927307128906 5.650735855102539 37.13422393798828 6.038425922393799 38.97493362426758 C 6.417415618896484 40.77652359008789 6.983535766601562 42.54915618896484 7.72105598449707 44.24356460571289 C 8.444425582885742 45.90658569335938 9.340045928955078 47.51077270507812 10.38305568695068 49.01161575317383 C 11.41715621948242 50.49900436401367 12.60353565216064 51.89653396606445 13.90925598144531 53.16537475585938 C 15.21596622467041 54.4355354309082 16.65373611450195 55.58876419067383 18.18262672424316 56.5930061340332 C 19.72595596313477 57.60640335083008 21.37623596191406 58.47706604003906 23.0876350402832 59.18081283569336 C 24.82962608337402 59.89703369140625 26.65329551696777 60.44724273681641 28.50797653198242 60.8161735534668 C 30.41064643859863 61.19465255737305 32.36870574951172 61.38654327392578 34.32775497436523 61.38654327392578 C 36.28656768798828 61.38655471801758 38.2444953918457 61.19465255737305 40.14715576171875 60.81618499755859 C 42.00183486938477 60.4472541809082 43.82549667358398 59.89703369140625 45.56749725341797 59.18082427978516 C 47.27886581420898 58.47709274291992 48.92914581298828 57.6064338684082 50.47251510620117 56.59303283691406 C 52.00062561035156 55.58952331542969 53.43840408325195 54.43631362915039 54.74588394165039 53.1653938293457 C 56.05160522460938 51.89656448364258 57.23798751831055 50.4990348815918 58.27207565307617 49.01163482666016 C 59.314697265625 47.51137542724609 60.21044540405273 45.90717315673828 60.93444442749023 44.24360275268555 C 61.67182540893555 42.54863357543945 62.23781585693359 40.77601623535156 62.61668395996094 38.9749755859375 C 63.00616455078125 37.12582397460938 63.20365524291992 35.22267532348633 63.20365524291992 33.31836318969727 C 63.20365524291992 31.41383361816406 63.00616455078125 29.51054382324219 62.61668395996094 27.6613941192627 C 62.2378044128418 25.86068344116211 61.67181396484375 24.08805465698242 60.9344367980957 22.39277458190918 C 60.21027755737305 20.72917366027832 59.31451416015625 19.12509346008301 58.27206420898438 17.62509346008301 C 57.23828506469727 16.13815498352051 56.05191421508789 14.74050426483154 54.74586486816406 13.47095394134521 C 53.43798446655273 12.20002460479736 52.00021743774414 11.04692459106445 50.47248458862305 10.0436840057373 C 48.92916488647461 9.030314445495605 47.27888488769531 8.15965461730957 45.56746673583984 7.455884456634521 C 43.82546615600586 6.73967456817627 42.00179672241211 6.189464569091797 40.14712524414062 5.82051420211792 C 38.2445068359375 5.44206428527832 36.28658676147461 5.25016450881958 34.32771682739258 5.25016450881958 C 34.28538513183594 5.25016450881958 34.24306488037109 5.250294208526611 34.20072555541992 5.25046443939209 L 34.20071411132812 4.433837966644205e-05 L 34.21182632446289 2.433837835269514e-05 L 34.22656631469727 4.338378857937641e-06 C 36.54878616333008 4.338378857937641e-06 38.8695068359375 0.2270443439483643 41.12427520751953 0.6748243570327759 C 43.32218551635742 1.111244320869446 45.48380661010742 1.762434363365173 47.54909515380859 2.610324382781982 C 49.57748413085938 3.442864418029785 51.53367614746094 4.473244190216064 53.36335754394531 5.672864437103271 C 55.17615509033203 6.861584186553955 56.88034439086914 8.226324081420898 58.42858505249023 9.729174613952637 C 59.97766494750977 11.23249435424805 61.38388442993164 12.88649463653564 62.60817718505859 14.64524459838867 C 63.84418487548828 16.42043495178223 64.90586853027344 18.31874465942383 65.76374816894531 20.2874641418457 C 66.6378173828125 22.2929744720459 67.30887603759766 24.3908748626709 67.75830841064453 26.52291488647461 C 68.21980285644531 28.71152496337891 68.45381927490234 30.96381378173828 68.45381927490234 33.21722412109375 C 68.45381927490234 35.47088623046875 68.21981811523438 37.72328567504883 67.75831604003906 39.91190338134766 C 67.3087158203125 42.04443359375 66.63764953613281 44.14223480224609 65.76376342773438 46.14697265625 C 64.90646362304688 48.1147346496582 63.84477615356445 50.01318359375 62.60820770263672 51.78955459594727 C 61.38390731811523 53.54831314086914 59.97769546508789 55.20231246948242 58.42861557006836 56.70562362670898 C 56.8811149597168 58.20775604248047 55.17691421508789 59.57235336303711 53.36339569091797 60.76156616210938 C 51.53268432617188 61.96184539794922 49.57649612426758 62.99235534667969 47.54914474487305 63.8244743347168 C 45.48386764526367 64.67234802246094 43.32224655151367 65.32354736328125 41.12432479858398 65.75995635986328 C 38.86954498291016 66.20772552490234 36.54882431030273 66.43477630615234 34.22660446166992 66.43477630615234 Z" stroke="none" fill="#fff"/>
    </g>
    <g id="Subtraction_7" data-name="Subtraction 7" transform="translate(318.353 3355.873)" fill="none">
      <path d="M24.281,47.133a25.172,25.172,0,0,1-4.894-.479A24.543,24.543,0,0,1,10.7,43.109,24.328,24.328,0,0,1,7.11,40.231a23.908,23.908,0,0,1-2.965-3.488,23.364,23.364,0,0,1-2.239-4A22.882,22.882,0,0,1,0,23.891H3.867a19.375,19.375,0,0,0,1.608,7.5,19.715,19.715,0,0,0,1.889,3.383,20.18,20.18,0,0,0,2.5,2.947,20.554,20.554,0,0,0,6.512,4.267,20.792,20.792,0,0,0,3.846,1.16,21.269,21.269,0,0,0,8.258,0,20.691,20.691,0,0,0,7.325-3,20.514,20.514,0,0,0,3.032-2.432,20.16,20.16,0,0,0,2.5-2.947,19.737,19.737,0,0,0,1.889-3.383,19.439,19.439,0,0,0,0-15.5A19.765,19.765,0,0,0,41.34,12.5a20.176,20.176,0,0,0-2.5-2.947A20.558,20.558,0,0,0,32.327,5.29a20.821,20.821,0,0,0-3.846-1.161,21.218,21.218,0,0,0-4.129-.4H24.16V0h.12a25.2,25.2,0,0,1,4.894.479,24.545,24.545,0,0,1,8.683,3.546A24.307,24.307,0,0,1,41.451,6.9a23.93,23.93,0,0,1,2.965,3.488,23.371,23.371,0,0,1,2.239,4,22.967,22.967,0,0,1,0,18.346,23.361,23.361,0,0,1-2.239,4,23.913,23.913,0,0,1-2.965,3.488,24.372,24.372,0,0,1-7.718,5.051,24.7,24.7,0,0,1-4.558,1.373A25.172,25.172,0,0,1,24.281,47.133Z" stroke="none"/>
      <path d="M 24.28055763244629 46.13331985473633 C 25.8633861541748 46.13331985473633 27.44438743591309 45.97867965698242 28.97983741760254 45.67365646362305 C 30.47479629516602 45.37698745727539 31.94621658325195 44.93381881713867 33.35304641723633 44.35654830932617 C 34.7327766418457 43.79007720947266 36.06381607055664 43.08888626098633 37.30908584594727 42.27251815795898 C 38.54268646240234 41.46357727050781 39.70194625854492 40.53523635864258 40.75478744506836 39.51317977905273 C 41.80766677856445 38.49140930175781 42.76358795166016 37.36714935302734 43.5958251953125 36.17182922363281 C 44.43605804443359 34.96435928344727 45.15693664550781 33.67529678344727 45.73861694335938 32.340087890625 C 46.33122634887695 30.9813289642334 46.78647613525391 29.55811882019043 47.09173583984375 28.10988807678223 C 47.40495681762695 26.6246280670166 47.56377792358398 25.0960578918457 47.56377792358398 23.56665802001953 C 47.56377792358398 22.03726768493652 47.40495681762695 20.50869750976562 47.09172821044922 19.02337837219238 C 46.78647613525391 17.5755672454834 46.33121871948242 16.15231895446777 45.73847579956055 14.79292774200439 C 45.15654754638672 13.45744800567627 44.4356575012207 12.16836833953857 43.5960578918457 10.96181774139404 C 42.76287841796875 9.765498161315918 41.80693817138672 8.64119815826416 40.75466537475586 7.620028018951416 C 39.70267868041992 6.598797798156738 38.54341888427734 5.67058801651001 37.30902862548828 4.861127853393555 C 36.06525802612305 4.0453782081604 34.73427581787109 3.344228029251099 33.35323715209961 2.777208089828491 C 31.94662666320801 2.200037956237793 30.47513771057129 1.756738066673279 28.97985649108887 1.459678053855896 C 27.72769927978516 1.211216330528259 26.44652366638184 1.062527298927307 25.16020774841309 1.015927195549011 L 25.16020774841309 2.739442110061646 C 26.34460258483887 2.782362461090088 27.52392578125 2.91946816444397 28.67635726928711 3.148627996444702 C 30.0546875 3.422898054122925 31.41079711914062 3.832197904586792 32.7067756652832 4.365067958831787 C 33.97880554199219 4.887718200683594 35.20636749267578 5.53535795211792 36.35531616210938 6.289968013763428 C 37.49312591552734 7.037147998809814 38.56304550170898 7.895257949829102 39.53520584106445 8.840317726135254 C 40.50823593139648 9.785858154296875 41.39175796508789 10.82663822174072 42.16128540039062 11.933837890625 C 42.93882751464844 13.05278778076172 43.6065788269043 14.2485876083374 44.14609527587891 15.48825836181641 C 44.69610595703125 16.75295829772949 45.11835861206055 18.07552719116211 45.40111541748047 19.41920852661133 C 45.69165802001953 20.79962730407715 45.8389778137207 22.2191276550293 45.8389778137207 23.63827896118164 C 45.8389778137207 25.05765724182129 45.69165802001953 26.47728729248047 45.40110778808594 27.85774803161621 C 45.11811828613281 29.20208740234375 44.69585800170898 30.5245475769043 44.14603805541992 31.78842735290527 C 43.60659790039062 33.02829742431641 42.93879699707031 34.22417831420898 42.16132736206055 35.34266662597656 C 41.39209747314453 36.4498176574707 40.50853729248047 37.49075698852539 39.53534698486328 38.43645858764648 C 38.56304550170898 39.38165664672852 37.49312591552734 40.23976898193359 36.35537719726562 40.98690795898438 C 35.20791625976562 41.74053955078125 33.98043823242188 42.38814926147461 32.70690536499023 42.91179656982422 C 31.40932655334473 43.44516754150391 30.05315780639648 43.85433959960938 28.6764965057373 44.12788772583008 C 27.26410675048828 44.40913772583008 25.8091869354248 44.5517463684082 24.3521671295166 44.5517463684082 C 22.8953971862793 44.5517463684082 21.44060707092285 44.40913772583008 20.02860641479492 44.12796783447266 C 18.65076637268066 43.85418701171875 17.29457664489746 43.44498825073242 15.99768733978271 42.91175842285156 C 14.72463703155518 42.38829803466797 13.49707698822021 41.74071884155273 12.34888744354248 40.98685836791992 C 11.21151733398438 40.23970794677734 10.14169692993164 39.38167953491211 9.168996810913086 38.43645858764648 C 8.195747375488281 37.49034881591797 7.312366962432861 36.44944763183594 6.543637275695801 35.34303665161133 C 5.766616821289062 34.22575759887695 5.098776817321777 33.02981948852539 4.558647155761719 31.78838729858398 C 4.008847236633301 30.52455711364746 3.586586952209473 29.20209884643555 3.303637027740479 27.85797882080078 C 3.09870171546936 26.88554954528809 2.964872598648071 25.89116287231445 2.903892517089844 24.89077758789062 L 1.037392735481262 24.89077758789062 C 1.102401256561279 25.97554588317871 1.247046828269958 27.05447006225586 1.46934700012207 28.1097583770752 C 1.774967074394226 29.55799865722656 2.230257034301758 30.98135757446289 2.822576999664307 32.34027862548828 C 3.405236959457397 33.67697906494141 4.126236915588379 34.96604919433594 4.965607166290283 36.17177963256836 C 5.796627044677734 37.36583709716797 6.752417087554932 38.49008941650391 7.80631685256958 39.51316833496094 C 8.860286712646484 40.53598785400391 10.01958751678467 41.46435928344727 11.25180721282959 42.27237701416016 C 12.49837684631348 43.0893669128418 13.82954692840576 43.79057693481445 15.20824718475342 44.35647964477539 C 16.61553764343262 44.93392944335938 18.08683776855469 45.37709808349609 19.58146667480469 45.67369842529297 C 21.1167163848877 45.97867965698242 22.69771766662598 46.13331985473633 24.28055763244629 46.13331985473633 M 24.28055763244629 47.13331985473633 C 22.63237762451172 47.13331985473633 20.98582649230957 46.97221755981445 19.38661766052246 46.6545295715332 C 17.82904624938965 46.34543991088867 16.29551696777344 45.88352966308594 14.82862663269043 45.2816162109375 C 13.39111709594727 44.69157791137695 12.00327682495117 43.96051788330078 10.70365715026855 43.10875701904297 C 9.418316841125488 42.26590728759766 8.209206581115723 41.2976188659668 7.109897136688232 40.23080825805664 C 6.009956836700439 39.16302871704102 5.012357234954834 37.98954772949219 4.144816875457764 36.74300765991211 C 3.268067121505737 35.48358917236328 2.514767169952393 34.13672637939453 1.905877113342285 32.7398567199707 C 1.286547064781189 31.31896781921387 0.810477077960968 29.83065795898438 0.4908970594406128 28.31623840332031 C 0.1860470473766327 26.86908721923828 0.02088705450296402 25.38014793395996 -2.945556616396061e-06 23.89077758789062 L 3.867367029190063 23.89077758789062 C 3.883707046508789 25.15741729736328 4.023117065429688 26.42265892028809 4.28214693069458 27.65175819396973 C 4.551237106323242 28.9300479888916 4.952786922454834 30.18758773803711 5.475636959075928 31.38947868347168 C 5.989547252655029 32.57063674926758 6.625097274780273 33.70871734619141 7.364616870880127 34.77207946777344 C 8.097066879272461 35.82627868652344 8.938656806945801 36.81790924072266 9.866037368774414 37.71942901611328 C 10.79332733154297 38.62051773071289 11.81341743469238 39.43863677978516 12.89792728424072 40.15106964111328 C 13.99281692504883 40.86992645263672 15.16367721557617 41.48758697509766 16.37797737121582 41.98688888549805 C 17.61518669128418 42.49558639526367 18.90900611877441 42.88594818115234 20.22350692749023 43.14714813232422 C 21.57177734375 43.41562652587891 22.96085739135742 43.5517463684082 24.3521671295166 43.5517463684082 C 25.74372673034668 43.5517463684082 27.13293647766113 43.41562652587891 28.48119735717773 43.14714813232422 C 29.79500770568848 42.88608932495117 31.08882713317871 42.49571990966797 32.32672882080078 41.98688888549805 C 33.54136657714844 41.48744964599609 34.71209716796875 40.86978912353516 35.8064079284668 40.15106964111328 C 36.89129638671875 39.43863677978516 37.911376953125 38.62051773071289 38.83830642700195 37.71942901611328 C 39.76568603515625 36.8182487487793 40.60740661621094 35.82661819458008 41.340087890625 34.77207946777344 C 42.08024597167969 33.70727920532227 42.71579742431641 32.56919860839844 43.22906875610352 31.38947868347168 C 43.75192642211914 30.18756866455078 44.15347671508789 28.93001747131348 44.42255783081055 27.65175819396973 C 44.69886779785156 26.33894729614258 44.8389778137207 24.98861885070801 44.8389778137207 23.63827896118164 C 44.8389778137207 22.28817749023438 44.69886779785156 20.93796730041504 44.42255783081055 19.62516784667969 C 44.15367889404297 18.34745788574219 43.75211715698242 17.08978843688965 43.22906875610352 15.8870677947998 C 42.71579742431641 14.70771789550781 42.08024597167969 13.5696382522583 41.340087890625 12.50447845458984 C 40.60714721679688 11.44991779327393 39.76542663574219 10.45840835571289 38.83830642700195 9.557488441467285 C 37.911376953125 8.656397819519043 36.89129638671875 7.838277816772461 35.8064079284668 7.125847816467285 C 34.71061706542969 6.406157970428467 33.53988647460938 5.788497924804688 32.32672882080078 5.290028095245361 C 31.09011650085449 4.781578063964844 29.79628753662109 4.391088008880615 28.48119735717773 4.129397869110107 C 27.13107681274414 3.860928058624268 25.74186706542969 3.724797964096069 24.3521671295166 3.724797964096069 C 24.2882080078125 3.724797964096069 24.22415733337402 3.725098133087158 24.16020774841309 3.725667953491211 L 24.16020774841309 0.000318020029226318 C 24.17619705200195 5.802002124255523e-05 24.19195747375488 3.802001810981892e-05 24.20771789550781 3.802001810981892e-05 C 24.2106876373291 3.802001810981892e-05 24.21365737915039 3.802001810981892e-05 24.21663665771484 3.802001810981892e-05 L 24.2485466003418 1.802002043405082e-05 L 24.28055763244629 -1.979980424948735e-06 C 25.92683792114258 -1.979980424948735e-06 27.57338714599609 0.1610980182886124 29.17448616027832 0.4787980318069458 C 30.73309707641602 0.7884480357170105 32.26675796508789 1.250488042831421 33.73284530639648 1.852068066596985 C 35.17279815673828 2.443268060684204 36.56052780151367 3.174318075180054 37.85745620727539 4.024928092956543 C 39.14471817016602 4.869058132171631 40.35382843017578 5.837217807769775 41.45120620727539 6.902507781982422 C 42.54921722412109 7.96806812286377 43.54693603515625 9.141528129577637 44.41665649414062 10.39030838012695 C 45.29393768310547 11.6510181427002 46.04709625244141 12.99786758422852 46.65522766113281 14.39345836639404 C 47.27494812011719 15.81473827362061 47.75100708007812 17.30304718017578 48.07021713256836 18.81707763671875 C 48.3977165222168 20.37005805969238 48.56377792358398 21.96804809570312 48.56377792358398 23.56665802001953 C 48.56377792358398 25.16526794433594 48.3977165222168 26.76326751708984 48.07021713256836 28.31623840332031 C 47.75100708007812 29.83063888549805 47.27494812011719 31.31894874572754 46.65522766113281 32.7398567199707 C 46.04750823974609 34.13486862182617 45.29433822631836 35.48171615600586 44.41665649414062 36.74300765991211 C 43.54772567749023 37.99101638793945 42.55000686645508 39.16448974609375 41.45120620727539 40.23080825805664 C 40.35305786132812 41.29685974121094 39.14393615722656 42.26513671875 37.85745620727539 43.10875701904297 C 36.55901718139648 43.95997619628906 35.17129516601562 44.69103622436523 33.73284530639648 45.2816162109375 C 32.26619720458984 45.88343811035156 30.73253631591797 46.3453369140625 29.17448616027832 46.6545295715332 C 27.57527732849121 46.97221755981445 25.92872619628906 47.13331985473633 24.28055763244629 47.13331985473633 Z" stroke="none" fill="#fff"/>
    </g>
    <path id="Path_1" data-name="Path 1" d="M0,0H122V30H0Z" transform="translate(280.949 3360.485)" fill="#494e4e"/>
    <g transform="matrix(1, 0, 0, 1, 275.95, 3328.67)" filter="url(#ECO_MAT)">
      <text id="ECO_MAT-2" data-name="ECO MAT" transform="translate(65 55.68)" fill="#fff" font-size="25" font-family="Montserrat-Bold, Montserrat" font-weight="700"><tspan x="-60.225" y="0">ECO MAT</tspan></text>
    </g>
  </g>
</svg>
