<svg xmlns="http://www.w3.org/2000/svg" xmlns:xlink="http://www.w3.org/1999/xlink" width="260" height="183.28" viewBox="0 0 260 183.28">
  <defs>
    <filter id="ECO_MAT" x="0" y="52.852" width="260" height="79" filterUnits="userSpaceOnUse">
      <feOffset dx="5" dy="3" input="SourceAlpha"/>
      <feGaussianBlur stdDeviation="3" result="blur"/>
      <feFlood flood-opacity="0.161"/>
      <feComposite operator="in" in2="blur"/>
      <feComposite in="SourceGraphic"/>
    </filter>
  </defs>
  <g id="logo" transform="translate(-259 -13.747)">
    <g id="Subtraction_8" data-name="Subtraction 8" transform="translate(298.846 192.138) rotate(-90)" fill="#fff">
      <path d="M 89.19548797607422 172.6302795410156 C 83.17733001708984 172.6302795410156 77.16194915771484 172.0419311523438 71.31639862060547 170.8815765380859 C 65.6221923828125 169.7503509521484 60.02021789550781 168.0625305175781 54.66617202758789 165.8650207519531 C 49.41060638427734 163.7080993652344 44.34140014648438 161.0378875732422 39.5993766784668 157.9285888671875 C 34.90147018432617 154.8480224609375 30.4849910736084 151.3114166259766 26.4726505279541 147.4169769287109 C 22.45942306518555 143.5223846435547 18.81576347351074 139.2366638183594 15.64287757873535 134.6788177490234 C 12.43996810913086 130.0773620605469 9.689309120178223 125.1591186523438 7.467286586761475 120.0607070922852 C 5.20421838760376 114.8679351806641 3.465968370437622 109.4334564208984 2.300832033157349 103.9082794189453 C 1.166548371315002 98.52679443359375 0.5624131560325623 92.99449157714844 0.5038301348686218 87.45668792724609 L 13.71074199676514 87.45668792724609 C 13.75229644775391 92.24348449707031 14.26879787445068 97.02349090576172 15.24728679656982 101.6731185913086 C 16.24319648742676 106.4026641845703 17.72878646850586 111.0546417236328 19.66280937194824 115.4998931884766 C 21.56169509887695 119.8639144897461 23.91201400756836 124.0730285644531 26.64851379394531 128.0102996826172 C 29.36090087890625 131.9123840332031 32.47346878051758 135.5791778564453 35.89978790283203 138.9088745117188 C 39.32937622070312 142.2424774169922 43.10121917724609 145.2676239013672 47.11049270629883 147.9002380371094 C 51.15812683105469 150.5584106445312 55.48712921142578 152.842529296875 59.97724151611328 154.6891174316406 C 64.54928588867188 156.5681610107422 69.33303833007812 158.0115051269531 74.19573974609375 158.9790496826172 C 79.18482971191406 159.9714813232422 84.32006072998047 160.4746856689453 89.45883178710938 160.4746856689453 C 94.59757995605469 160.4746856689453 99.73281097412109 159.9714813232422 104.7218780517578 158.9790496826172 C 109.5847854614258 158.0114288330078 114.368537902832 156.568115234375 118.9402847290039 154.6891326904297 C 123.4311065673828 152.8423004150391 127.7599029541016 150.5581817626953 131.8065795898438 147.9001922607422 C 135.8155975341797 145.2681884765625 139.5876922607422 142.2430419921875 143.0179443359375 138.9088439941406 C 146.4464263916016 135.5763397216797 149.5587615966797 131.9095458984375 152.2685089111328 128.0102691650391 C 155.0049896240234 124.0739822387695 157.3555603027344 119.8648681640625 159.2548522949219 115.4999160766602 C 161.1888732910156 111.0546646118164 162.6744689941406 106.4026870727539 163.6703796386719 101.6731872558594 C 164.6917572021484 96.81959533691406 165.2096557617188 91.82511901855469 165.2096557617188 86.82846069335938 C 165.2096557617188 81.83111572265625 164.6917572021484 76.83663940429688 163.6703796386719 71.98377990722656 C 162.6742401123047 67.2530517578125 161.1886444091797 62.60107040405273 159.2548522949219 58.15702438354492 C 157.3555603027344 53.79207229614258 155.0049896240234 49.58295822143555 152.2684631347656 45.6465950012207 C 149.557373046875 41.74543380737305 146.4450073242188 38.07861709594727 143.0179290771484 34.74805068969727 C 139.5901031494141 31.41616249084473 135.8180389404297 28.39102554321289 131.8065338134766 25.7567081451416 C 127.757194519043 23.0976619720459 123.4283981323242 20.81354904174805 118.9403991699219 18.96779823303223 C 114.3686294555664 17.08884429931641 109.5848541259766 15.64550304412842 104.7219009399414 14.67788982391357 C 99.79408264160156 13.69761085510254 94.72318267822266 13.19462871551514 89.64751434326172 13.18243503570557 L 89.64749145507812 0.5011085867881775 C 95.51548767089844 0.529818594455719 101.3764877319336 1.117619872093201 107.0745162963867 2.249366998672485 C 112.7678527832031 3.379730701446533 118.3698120117188 5.06732177734375 123.724853515625 7.26525354385376 C 128.9813995361328 9.423298835754395 134.0505981445312 12.09373092651367 138.7916259765625 15.20236682891846 C 143.4871978759766 18.28091239929199 147.9036712646484 21.81729888916016 151.9184265136719 25.71329879760742 C 155.9315795898438 29.60784339904785 159.5752410888672 33.89359283447266 162.7481231689453 38.45145797729492 C 165.9519195556641 43.05393600463867 168.7025756835938 47.97238922119141 170.9236755371094 53.07018661499023 C 173.1876220703125 58.26336669921875 174.9258728027344 63.69777679443359 176.0901489257812 69.22261810302734 C 177.2856750488281 74.8905029296875 177.8918609619141 80.725341796875 177.8918609619141 86.56513977050781 C 177.8918609619141 92.4046630859375 177.2856750488281 98.23973083496094 176.0901794433594 103.9082794189453 C 174.9256744384766 109.4336166381836 173.1874389648438 114.8680267333984 170.9237213134766 120.060661315918 C 168.7025146484375 125.1588897705078 165.9518737792969 130.0771179199219 162.7481536865234 134.6788024902344 C 159.5767211914062 139.2352752685547 155.9330749511719 143.5209808349609 151.9184265136719 147.4169616699219 C 147.9048156738281 151.3126220703125 143.4883270263672 154.8492279052734 138.7916259765625 157.9285888671875 C 134.0494842529297 161.0379333496094 128.9802856445312 163.7081146240234 123.724853515625 165.8650054931641 C 118.3708343505859 168.0625305175781 112.7688522338867 169.7503509521484 107.0744934082031 170.881591796875 C 101.2290344238281 172.0419311523438 95.21365356445312 172.6302795410156 89.19548797607422 172.6302795410156 Z" stroke="none"/>
      <path d="M 89.19548797607422 172.1302795410156 C 95.18103790283203 172.1302795410156 101.1636734008789 171.5451354980469 106.9770584106445 170.3911590576172 C 112.6398544311523 169.2661895751953 118.2107391357422 167.5877532958984 123.5350112915039 165.4024505615234 C 128.7610626220703 163.2576141357422 133.8018951416016 160.6023712158203 138.5174865722656 157.5104522705078 C 143.1877136230469 154.4484405517578 147.5792694091797 150.9317932128906 151.5702209472656 147.0581359863281 C 155.5619049072266 143.1844635009766 159.1846008300781 138.9233703613281 162.3378143310547 134.3931121826172 C 165.5227661132812 129.8183746337891 168.2572479248047 124.929069519043 170.4653778076172 119.8608703613281 C 172.7155609130859 114.6992568969727 174.4434051513672 109.29736328125 175.6009216308594 103.8050918579102 C 176.789306640625 98.17041015625 177.3918609619141 92.37004852294922 177.3918609619141 86.56513977050781 C 177.3918609619141 80.75995635986328 176.789306640625 74.95984649658203 175.6009063720703 69.32570648193359 C 174.443603515625 63.83402633666992 172.7157592773438 58.4321403503418 170.4652862548828 53.26991271972656 C 168.2573089599609 48.20220947265625 165.5228118896484 43.31266403198242 162.3377685546875 38.73714065551758 C 159.1831512451172 34.20552444458008 155.5604248046875 29.94438934326172 151.5702209472656 26.07211685180664 C 147.5781707763672 22.19813919067383 143.1865997314453 18.68170738220215 138.5174713134766 15.62050342559814 C 133.8029937744141 12.52927589416504 128.7621307373047 9.873776435852051 123.5349884033203 7.727821826934814 C 118.2097396850586 5.542094230651855 112.6389007568359 3.863889694213867 106.9771041870117 2.739798784255981 C 101.4727554321289 1.64650559425354 95.81538391113281 1.06361985206604 90.14749145507812 1.004927754402161 L 90.14751434326172 12.68520259857178 C 95.08897399902344 12.72812652587891 100.0211791992188 13.23298358917236 104.8194885253906 14.18750381469727 C 109.7140350341797 15.16141223907471 114.5289001464844 16.61411666870117 119.1305618286133 18.50539016723633 C 123.64794921875 20.36320877075195 128.0051116943359 22.66227531433105 132.0809936523438 25.33875274658203 C 136.1189422607422 27.99045753479004 139.9159240722656 31.03557205200195 143.3663787841797 34.38948059082031 C 146.8164520263672 37.74234390258789 149.9496917724609 41.43379974365234 152.6790161132812 45.36118698120117 C 155.4342346191406 49.32448196411133 157.8009490966797 53.56250381469727 159.7133331298828 57.95752716064453 C 161.6605834960938 62.43254852294922 163.1565399169922 67.11698150634766 164.15966796875 71.88079833984375 C 165.1881561279297 76.7674560546875 165.7096557617188 81.79656982421875 165.7096557617188 86.82846069335938 C 165.7096557617188 91.85966491699219 165.1881713867188 96.88875579833984 164.1596527099609 101.7762069702148 C 163.1567840576172 106.5387496948242 161.6608276367188 111.2231597900391 159.7133331298828 115.6994094848633 C 157.8009490966797 120.0944366455078 155.4342346191406 124.3324584960938 152.6791076660156 128.2955932617188 C 149.9510803222656 132.2211456298828 146.8178558349609 135.91259765625 143.3664398193359 139.2673645019531 C 139.9134979248047 142.6236419677734 136.1164855957031 145.6687927246094 132.0810852050781 148.3180999755859 C 128.0078582763672 150.9935302734375 123.6506500244141 153.2926330566406 119.1303558349609 155.151611328125 C 114.5288314819336 157.0428161621094 109.7139434814453 158.4955444335938 104.8194198608398 159.4694366455078 C 99.79830932617188 160.4682464599609 94.63026428222656 160.9746856689453 89.45883178710938 160.9746856689453 C 84.28737640380859 160.9746856689453 79.11933135986328 160.4682464599609 74.09815216064453 159.4694366455078 C 69.20388031005859 158.4955902099609 64.38901519775391 157.0428619384766 59.78708267211914 155.1515197753906 C 55.26758193969727 153.2928619384766 50.91019439697266 150.9937744140625 46.83603668212891 148.3181915283203 C 42.80033111572266 145.668212890625 39.00358200073242 142.6230773925781 35.55130767822266 139.2674407958984 C 32.10208129882812 135.9154510498047 28.96860504150391 132.2240447998047 26.23792266845703 128.2956390380859 C 23.48274040222168 124.3314590454102 21.11628723144531 120.0934600830078 19.20430946350098 115.6993637084961 C 17.25683212280273 111.2231369018555 15.76087760925293 106.5387344360352 14.75799083709717 101.7760925292969 C 13.80648231506348 97.25463104248047 13.28882694244385 92.61071014404297 13.21675205230713 87.95668792724609 L 1.010674715042114 87.95668792724609 C 1.099245548248291 93.29296112060547 1.697026610374451 98.61927795410156 2.790059328079224 103.8051147460938 C 3.948240995407104 109.2972106933594 5.676104545593262 114.6991653442383 7.925650119781494 119.860954284668 C 10.13455963134766 124.9292755126953 12.86908149719238 129.8186340332031 16.05324172973633 134.3931427001953 C 19.20785522460938 138.9247283935547 22.83060455322266 143.1858673095703 26.82087707519531 147.0582122802734 C 30.81053733825684 150.9305877685547 35.20210647583008 154.4472503662109 39.87353515625 157.5104522705078 C 44.58901214599609 160.6023406982422 49.62983322143555 163.2575988769531 54.85603713989258 165.4024505615234 C 60.1803092956543 167.5877532958984 65.75117492675781 169.2662048339844 71.41376495361328 170.3911437988281 C 77.22731018066406 171.5451354980469 83.20994567871094 172.1302795410156 89.19548797607422 172.1302795410156 M 89.19548797607422 173.1302795410156 C 83.14473724365234 173.1302795410156 77.09658050537109 172.5387115478516 71.21906280517578 171.3720092773438 C 65.49310302734375 170.2344818115234 59.86005783081055 168.5372772216797 54.47633361816406 166.3275756835938 C 49.19139862060547 164.1585998535156 44.09383010864258 161.4734649658203 39.32521820068359 158.3467254638672 C 34.60085296630859 155.2488250732422 30.15944480895996 151.6922302246094 26.12439918518066 147.7757720947266 C 22.08833122253418 143.8590087890625 18.42376327514648 139.5486907958984 15.23251342773438 134.9644775390625 C 12.01078605651855 130.3359832763672 9.243990898132324 125.3888244628906 7.008923053741455 120.2604827880859 C 4.732354640960693 115.0366821289062 2.983718395233154 109.5697326660156 1.811581969261169 104.0114593505859 C 0.6360137462615967 98.43407440185547 0.02651376090943813 92.69600677490234 1.3760653018835e-05 86.95668792724609 L 14.20812702178955 86.95668792724609 C 14.21689987182617 91.87495422363281 14.73089981079102 96.79136657714844 15.73655891418457 101.5701599121094 C 16.72551345825195 106.2666168212891 18.20076370239258 110.8861618041992 20.12128639221191 115.3004150390625 C 22.00705909729004 119.6343002319336 24.34126281738281 123.8145294189453 27.05908203125 127.7249374389648 C 29.75315093994141 131.6006622314453 32.84481048583984 135.2428436279297 36.24824142456055 138.55029296875 C 39.65522003173828 141.8619079589844 43.40212631225586 144.8670501708984 47.38492202758789 147.4822692871094 C 51.40599060058594 150.1230010986328 55.70664978027344 152.3921661376953 60.16742324829102 154.2266845703125 C 64.70946502685547 156.0934143066406 69.46208190917969 157.5273742675781 74.29331207275391 158.4886627197266 C 79.25028991699219 159.4747009277344 84.35271453857422 159.9746856689453 89.45883178710938 159.9746856689453 C 94.56492614746094 159.9746856689453 99.6673583984375 159.4747009277344 104.6243286132812 158.4886627197266 C 109.4556045532227 157.52734375 114.2082443237305 156.0934143066406 118.7502212524414 154.2266845703125 C 123.2116012573242 152.3919372558594 127.5120391845703 150.1227722167969 131.5320892333984 147.4822692871094 C 135.5147399902344 144.8675994873047 139.2619018554688 141.8624420166016 142.6694488525391 138.55029296875 C 146.0749053955078 135.2401885986328 149.1663818359375 131.5980072021484 151.8579254150391 127.7249374389648 C 154.5757141113281 123.8155288696289 156.91015625 119.6353225708008 158.7963714599609 115.3004150390625 C 160.7169647216797 110.8860244750977 162.1921691894531 106.2665252685547 163.1811065673828 101.5701599121094 C 164.1953582763672 96.75050354003906 164.7096557617188 91.79068756103516 164.7096557617188 86.82846069335938 C 164.7096557617188 81.86554718017578 164.1953582763672 76.90573120117188 163.1811065673828 72.08675384521484 C 162.1919250488281 67.38911437988281 160.7166748046875 62.76957321166992 158.7963714599609 58.35652542114258 C 156.91015625 54.0216178894043 154.5757141113281 49.84141159057617 151.8579254150391 45.93200302124023 C 149.1650848388672 42.05709457397461 146.0736541748047 38.41491317749023 142.6694488525391 35.10661697387695 C 139.2641754150391 31.79664039611816 135.5169982910156 28.79150390625 131.5320892333984 26.17464065551758 C 127.5093536376953 23.53307151794434 123.2089233398438 21.26391220092773 118.7502212524414 19.43023109436035 C 114.2082443237305 17.56350326538086 109.4556045532227 16.12959480285645 104.6243286132812 15.16827583312988 C 99.66733551025391 14.18218517303467 94.56492614746094 13.68220806121826 89.45883178710938 13.68220806121826 C 89.35503387451172 13.68220806121826 89.25124359130859 13.68243503570557 89.14751434326172 13.6828670501709 L 89.14749145507812 4.886141687165946e-05 L 89.19551086425781 3.406871428524028e-06 C 95.24748992919922 3.406871428524028e-06 101.2956237792969 0.5917988419532776 107.1719207763672 1.758957982063293 C 112.8967437744141 2.89557147026062 118.5298309326172 4.592525959014893 123.9146957397461 6.802708148956299 C 129.2006072998047 8.972799301147461 134.2981719970703 11.65816211700439 139.0657806396484 14.78423023223877 C 143.7878265380859 17.88014030456543 148.229248046875 21.43650245666504 152.2666320800781 25.3544807434082 C 156.3027648925781 29.27132225036621 159.9673156738281 33.58166122436523 163.1584930419922 38.16579818725586 C 166.3810424804688 42.79520797729492 169.1478576660156 47.74259567260742 171.3820648193359 52.87047958374023 C 173.6595611572266 58.09470748901367 175.4081726074219 63.56168365478516 176.5794067382812 69.1195068359375 C 177.7820892333984 74.82129669189453 178.3918609619141 80.69086456298828 178.3918609619141 86.56513977050781 C 178.3918609619141 92.43914031982422 177.7820892333984 98.30893707275391 176.5794067382812 104.0114593505859 C 175.4079284667969 109.5699615478516 173.6592712402344 115.0369110107422 171.3820648193359 120.2604827880859 C 169.1477661132812 125.3887557983398 166.3809509277344 130.3358917236328 163.1584930419922 134.9644775390625 C 159.9687194824219 139.5473022460938 156.3041534423828 143.8576202392578 152.2666320800781 147.7757720947266 C 148.230224609375 151.6935729980469 143.7888031005859 155.2501220703125 139.0657806396484 158.3467254638672 C 134.2972106933594 161.473388671875 129.1996917724609 164.1585540771484 123.9146957397461 166.3275756835938 C 118.5309448242188 168.5372772216797 112.897834777832 170.2344818115234 107.1719207763672 171.3720092773438 C 101.2944030761719 172.5387115478516 95.24626159667969 173.1302795410156 89.19548797607422 173.1302795410156 Z" stroke="none" fill="#23536d"/>
    </g>
    <g id="Subtraction_9" data-name="Subtraction 9" transform="translate(474.002 107.11) rotate(135)" fill="#fff">
      <path d="M 63.58012771606445 122.9108276367188 C 59.29857635498047 122.9108276367188 55.02007675170898 122.4922943115234 50.86346054077148 121.666862487793 C 46.8129768371582 120.8625946044922 42.82886123657227 119.6623153686523 39.02174377441406 118.0993499755859 C 35.28507614135742 116.5656280517578 31.6795597076416 114.6662673950195 28.30532646179199 112.4539947509766 C 24.96282577514648 110.2621841430664 21.8220272064209 107.747200012207 18.97017669677734 104.9789505004883 C 16.11697578430176 102.2100830078125 13.52565956115723 99.16216278076172 11.26812648773193 95.91981506347656 C 8.988626480102539 92.64424896240234 7.032559871673584 89.14656066894531 5.454309940338135 85.52401733398438 C 3.844493389129639 81.8309326171875 2.608293294906616 77.96654510498047 1.780043244361877 74.03813171386719 C 0.9804900884628296 70.24642181396484 0.5516369342803955 66.34653472900391 0.5040295124053955 62.43756484985352 L 9.630386352539062 62.43756484985352 C 9.666067123413086 65.8294677734375 10.03486156463623 69.21357727050781 10.72785949707031 72.50386047363281 C 11.43881034851074 75.88348388671875 12.50080966949463 79.2088623046875 13.88434314727783 82.38751220703125 C 15.24110984802246 85.5067138671875 16.92097663879395 88.51561737060547 18.87721061706543 91.33051300048828 C 20.81649398803711 94.11991119384766 23.0412425994873 96.74061584472656 25.48969268798828 99.11989593505859 C 27.93972587585449 101.5014114379883 30.63545989990234 103.6636505126953 33.50196075439453 105.5464782714844 C 36.39539337158203 107.4463958740234 39.48934173583984 109.0787124633789 42.69795989990234 110.3981475830078 C 45.96379470825195 111.7408828735352 49.38264465332031 112.7723770141602 52.85952758789062 113.4640121459961 C 56.42604446411133 114.1734313964844 60.09619140625 114.5331497192383 63.76802825927734 114.5331497192383 C 67.43940734863281 114.5331497192383 71.10932922363281 114.1734313964844 74.67584228515625 113.4640121459961 C 78.15274047851562 112.7723770141602 81.57157897949219 111.7408828735352 84.83737945556641 110.3981475830078 C 88.04589080810547 109.0787811279297 91.13986206054688 107.4464645385742 94.03337860107422 105.546516418457 C 96.89862823486328 103.6649322509766 99.5943603515625 101.5027008056641 102.0457611083984 99.11985015869141 C 104.4941787719727 96.7406005859375 106.7189102172852 94.11989593505859 108.6581268310547 91.33059692382812 C 110.613639831543 88.51674652099609 112.2937240600586 85.50788116455078 113.6517562866211 82.38749694824219 C 115.035041809082 79.20777893066406 116.096809387207 75.88243103027344 116.8075561523438 72.50374603271484 C 117.5381622314453 69.03501129150391 117.9086303710938 65.46499633789062 117.9086303710938 61.89296340942383 C 117.9086303710938 58.32051467895508 117.5381622314453 54.75026321411133 116.8075408935547 51.28137969970703 C 116.096794128418 47.90338134765625 115.035041809082 44.57804870605469 113.6517944335938 41.39788055419922 C 112.29345703125 38.27739715576172 110.6133804321289 35.26877975463867 108.6581802368164 32.45542907714844 C 106.7195281982422 29.66689682006836 104.4947967529297 27.04598045349121 102.0457611083984 24.66541290283203 C 99.59351348876953 22.28243064880371 96.89777374267578 20.12042999267578 94.03339385986328 18.23944664001465 C 91.13994598388672 16.33953094482422 88.04595947265625 14.70721340179443 84.83739471435547 13.38779735565186 C 81.57157897949219 12.04508018493652 78.15274047851562 11.01358032226562 74.67584228515625 10.32194709777832 C 71.19500732421875 9.629547119140625 67.61542510986328 9.270288467407227 64.03211212158203 9.253451347351074 L 64.03211212158203 0.5015462636947632 C 68.16157531738281 0.5299259424209595 72.28567504882812 0.9475502371788025 76.29609680175781 1.743980526924133 C 80.34752655029297 2.548447132110596 84.33187866210938 3.748730421066284 88.13849639892578 5.311513900756836 C 91.87714385986328 6.846030712127686 95.48265838623047 8.745146751403809 98.85494232177734 10.95614719390869 C 102.1959228515625 13.14696407318115 105.3367462158203 15.66218090057373 108.1901245117188 18.4318962097168 C 111.044792175293 21.20221328735352 113.6361083984375 24.25011444091797 115.8921279907227 27.49099731445312 C 118.1693801879883 30.76163101196289 120.1254272460938 34.25906372070312 121.7059783935547 37.88618087768555 C 123.3161087036133 41.58058166503906 124.5523071289062 45.4451789855957 125.380241394043 49.37269592285156 C 126.2303924560547 53.40449905395508 126.6614608764648 57.55369567871094 126.6614608764648 61.70506286621094 C 126.6614608764648 65.85688018798828 126.2303924560547 70.00633239746094 125.380241394043 74.03811645507812 C 124.5520095825195 77.96656036376953 123.3158111572266 81.8309326171875 121.7059936523438 85.52391052246094 C 120.1265258789062 89.14927673339844 118.1704788208008 92.64694976806641 115.8921279907227 95.91984558105469 C 113.6361083984375 99.16072845458984 111.044792175293 102.2086334228516 108.1901626586914 104.9788970947266 C 105.3381958007812 107.7472457885742 102.197380065918 110.2622299194336 98.85491180419922 112.4540100097656 C 95.480712890625 114.6662673950195 91.87519073486328 116.5656280517578 88.13854217529297 118.0993270874023 C 84.33180999755859 119.6621475219727 80.34744262695312 120.8624267578125 76.29611206054688 121.6668472290039 C 72.13951110839844 122.4922943115234 67.86124420166016 122.9108276367188 63.58012771606445 122.9108276367188 Z" stroke="none"/>
      <path d="M 63.58012771606445 122.4108276367188 C 67.82861328125 122.4108276367188 72.07412719726562 121.9955139160156 76.19874572753906 121.1764297485352 C 80.21847534179688 120.3782806396484 84.17170715332031 119.1873626708984 87.94869232177734 117.6367797851562 C 91.65596008300781 116.1151275634766 95.23310852050781 114.230712890625 98.58074188232422 112.0358810424805 C 101.8967437744141 109.8614501953125 105.0126419067383 107.3664474487305 107.8419570922852 104.6200790405273 C 110.6736068725586 101.8721008300781 113.244026184082 98.84880065917969 115.4817733764648 95.63419342041016 C 117.7413635253906 92.38822937011719 119.6812591552734 88.91947937011719 121.2476577758789 85.32411193847656 C 122.8439407348633 81.66214752197266 124.0697402954102 77.83029937744141 124.8910064697266 73.93496704101562 C 125.7340240478516 69.93701171875 126.1614608764648 65.82228088378906 126.1614608764648 61.70506286621094 C 126.1614608764648 57.58829879760742 125.7340240478516 53.47381210327148 124.8909912109375 49.475830078125 C 124.0700302124023 45.5814323425293 122.8442230224609 41.74932861328125 121.2475967407227 38.08592987060547 C 119.68017578125 34.48889541625977 117.7402954101562 31.0203800201416 115.4817581176758 27.77664756774902 C 113.244026184082 24.56204795837402 110.6736068725586 21.53874778747559 107.8418579101562 18.79067993164062 C 105.0111923217773 16.0429801940918 101.8952941894531 13.54774761199951 98.58079528808594 11.37429714202881 C 95.23506164550781 9.180713653564453 91.65791320800781 7.296530246734619 87.9486083984375 5.774063587188721 C 84.17177581787109 4.223496913909912 80.21854400634766 3.032597064971924 76.19870758056641 2.234413862228394 C 72.38177490234375 1.476406335830688 68.46127319335938 1.064197063446045 64.53211212158203 1.006924390792847 L 64.53211212158203 8.757976531982422 C 67.98087310791016 8.804427146911621 71.4224853515625 9.164999961853027 74.77339172363281 9.831546783447266 C 78.28191375732422 10.52948093414307 81.73189544677734 11.57038021087646 85.02755737304688 12.92538070678711 C 88.26549530029297 14.25686359405518 91.38782501220703 15.90414714813232 94.307861328125 17.82149696350098 C 97.19866180419922 19.71984672546387 99.91927337646484 21.90181350708008 102.3942794799805 24.30688095092773 C 104.8662261962891 26.70973014831543 107.1118087768555 29.35524749755859 109.0687637329102 32.17009735107422 C 111.0426406860352 35.01031494140625 112.7388229370117 38.04781341552734 114.1103134155273 41.19844818115234 C 115.5070114135742 44.40959548950195 116.5791244506836 47.76737976074219 117.2968063354492 51.17832946777344 C 118.0345611572266 54.6810302734375 118.4086303710938 58.28596496582031 118.4086303710938 61.89296340942383 C 118.4086303710938 65.49954986572266 118.0345611572266 69.104248046875 117.2968597412109 72.60668182373047 C 116.5791397094727 76.0184326171875 115.5070266723633 79.37626647949219 114.1102294921875 82.58701324462891 C 112.7391128540039 85.73744964599609 111.0429229736328 88.77519989013672 109.0686569213867 91.61601257324219 C 107.1111907958984 94.43156433105469 104.8655776977539 97.07688140869141 102.3942794799805 99.47837829589844 C 99.92019653320312 101.8832778930664 97.19952392578125 104.0654983520508 94.30780792236328 105.9644622802734 C 91.38774108886719 107.8818435668945 88.26541137695312 109.5291290283203 85.02751159667969 110.860595703125 C 81.73189544677734 112.2155838012695 78.28191375732422 113.256477355957 74.77339172363281 113.9543991088867 C 71.17482757568359 114.6701965332031 67.47209167480469 115.0331497192383 63.76802825927734 115.0331497192383 C 60.06351089477539 115.0331497192383 56.36054229736328 114.6701965332031 52.76197814941406 113.9543991088867 C 49.25347518920898 113.2565002441406 45.8034782409668 112.2155838012695 42.50779342651367 110.8605651855469 C 39.26980972290039 109.5290603637695 36.14749145507812 107.8817825317383 33.22745895385742 105.9643783569336 C 30.33452606201172 104.0641937255859 27.61389350891113 101.8819961547852 25.14124298095703 99.47847747802734 C 22.66986083984375 97.07689666748047 20.42422676086426 94.43159484863281 18.46662712097168 91.61586761474609 C 16.49167633056641 88.77403259277344 14.79569339752197 85.73622894287109 13.42587661743164 82.58706665039062 C 12.02886009216309 79.37739562988281 10.95647621154785 76.01951599121094 10.23859310150146 72.60691070556641 C 9.57252311706543 69.44450378417969 9.203066825866699 66.19644927978516 9.137958526611328 62.93756484985352 L 1.012310743331909 62.93756484985352 C 1.088925123214722 66.64430236816406 1.510966777801514 70.33880615234375 2.26927661895752 73.93498229980469 C 3.090559959411621 77.83028411865234 4.316359996795654 81.66214752197266 5.912693500518799 85.32429504394531 C 7.477843284606934 88.91677856445312 9.417777061462402 92.38556671142578 11.67846012115479 95.63411712646484 C 13.91771030426025 98.85021209716797 16.48814392089844 101.8735275268555 19.31844329833984 104.6201629638672 C 22.1475772857666 107.3663940429688 25.26346015930176 109.8613967895508 28.57947731018066 112.0358505249023 C 31.92714309692383 114.2306976318359 35.50429153442383 116.1151275634766 39.21164321899414 117.6367950439453 C 42.98894500732422 119.1875457763672 46.94194412231445 120.3784484863281 50.96086120605469 121.1764297485352 C 55.0854606628418 121.9955139160156 59.33121109008789 122.4108276367188 63.58012771606445 122.4108276367188 M 63.58012771606445 123.4108276367188 C 59.26591110229492 123.4108276367188 54.95462799072266 122.9890670776367 50.76607513427734 122.1572799682617 C 46.68400955200195 121.3467483520508 42.66875839233398 120.137077331543 38.83185958862305 118.561882019043 C 35.06582641601562 117.01611328125 31.43194389343262 115.1017990112305 28.03117752075195 112.8721313476562 C 24.66229248046875 110.6630172729492 21.49654388427734 108.1280822753906 18.62192726135254 105.3377151489258 C 15.74582672119141 102.546630859375 13.13359355926514 99.47411346435547 10.85779285430908 96.20551300048828 C 8.559493064880371 92.90293121337891 6.587276458740234 89.37635040283203 4.995926856994629 85.72371673583984 C 3.372609853744507 81.99967956542969 2.126026630401611 78.102783203125 1.290793299674988 74.14128112792969 C 0.4500432908535004 70.15419769287109 0.01575995609164238 66.04824829101562 9.956868780136574e-06 61.93756484985352 L 10.12754344940186 61.93756484985352 C 10.13059329986572 65.46136474609375 10.49694347381592 68.98146057128906 11.21712684631348 72.40081024169922 C 11.92114353179932 75.74749755859375 12.97277641296387 79.04036712646484 14.34279346466064 82.18796539306641 C 15.68654346466064 85.27722930908203 17.35027694702148 88.25721740722656 19.28779411315918 91.04518127441406 C 21.20875930786133 93.80821228027344 23.4126091003418 96.404296875 25.83814239501953 98.76131439208984 C 28.26551055908203 101.1207962036133 30.93634414672852 103.2630615234375 33.77645874023438 105.1285629272461 C 36.64337539672852 107.0110778808594 39.70897674560547 108.6284103393555 42.88811111450195 109.9357147216797 C 46.12409210205078 111.2661819458008 49.51177597045898 112.2882766723633 52.95707702636719 112.9736175537109 C 56.49150848388672 113.6766662597656 60.12884140014648 114.0331497192383 63.76802825927734 114.0331497192383 C 67.40676116943359 114.0331497192383 71.04386138916016 113.6766662597656 74.57829284667969 112.9736175537109 C 78.02359008789062 112.2882766723633 81.41127777099609 111.2661819458008 84.64723968505859 109.9357147216797 C 87.82632446289062 108.6284484863281 90.89194488525391 107.011100769043 93.75894165039062 105.1285629272461 C 96.59761047363281 103.2644271850586 99.26846313476562 101.122200012207 101.6972579956055 98.76131439208984 C 104.1227951049805 96.404296875 106.3266448974609 93.80821228027344 108.2475967407227 91.04518127441406 C 110.1844100952148 88.25824737548828 111.8483581542969 85.27826690673828 113.1932907104492 82.18796539306641 C 114.5630569458008 79.03934478759766 115.6144561767578 75.74649810791016 116.3182754516602 72.40081024169922 C 117.0417785644531 68.96579742431641 117.4086303710938 65.43045043945312 117.4086303710938 61.89296340942383 C 117.4086303710938 58.35506439208984 117.0417785644531 54.81948089599609 116.3182754516602 51.38442993164062 C 115.6144561767578 48.03939819335938 114.5630569458008 44.74651336669922 113.1932907104492 41.59731292724609 C 111.8480758666992 38.50699615478516 110.1840896606445 35.52721405029297 108.2475967407227 32.74077987670898 C 106.327262878418 29.97859764099121 104.1234283447266 27.38228034973145 101.6972579956055 25.02394676208496 C 99.26770782470703 22.66303062438965 96.59687805175781 20.5210132598877 93.75894165039062 18.65738105773926 C 90.89204406738281 16.7749137878418 87.82644653320312 15.15756416320801 84.64723968505859 13.85023021697998 C 81.41127777099609 12.51978015899658 78.02359008789062 11.4976806640625 74.57829284667969 10.81233024597168 C 71.04396057128906 10.10929679870605 67.4068603515625 9.752830505371094 63.76802825927734 9.752830505371094 C 63.68937683105469 9.752830505371094 63.61077499389648 9.753064155578613 63.53210830688477 9.75338077545166 L 63.53210830688477 8.048502786550671e-05 L 63.55276107788086 4.71516941615846e-05 L 63.58012771606445 -2.848307303793263e-06 C 67.89394378662109 -2.848307303793263e-06 72.20496368408203 0.4217638075351715 76.39349365234375 1.253563761711121 C 80.47637939453125 2.064263820648193 84.49185943603516 3.273913860321045 88.32839202880859 4.84898042678833 C 92.09635925292969 6.395530700683594 95.73023986816406 8.309597015380859 99.12909698486328 10.53801345825195 C 102.4965896606445 12.74621391296387 105.6623229980469 15.28139686584473 108.5383758544922 18.07312965393066 C 111.4159927368164 20.86571311950684 114.0282135009766 23.93823051452637 116.302490234375 27.20532989501953 C 118.5985412597656 30.50296401977539 120.5707244873047 34.02931213378906 122.1643447875977 37.68644714355469 C 123.7880249023438 41.41193008422852 125.0345916748047 45.30904769897461 125.8694915771484 49.26956558227539 C 126.7267761230469 53.33518218994141 127.1614608764648 57.51908111572266 127.1614608764648 61.70506286621094 C 127.1614608764648 65.89153289794922 126.7267761230469 70.07564544677734 125.8694915771484 74.14128112792969 C 125.034294128418 78.10272979736328 123.787712097168 81.99964904785156 122.1643447875977 85.72371673583984 C 120.5718078613281 89.37906646728516 118.5995941162109 92.90566253662109 116.302490234375 96.20551300048828 C 114.0282135009766 99.47261047363281 111.4159927368164 102.5451278686523 108.5383758544922 105.3377151489258 C 105.6636962890625 108.1281127929688 102.4979400634766 110.6630477905273 99.12909698486328 112.8721313476562 C 95.72832489013672 115.1017990112305 92.09444427490234 117.01611328125 88.32839202880859 118.561882019043 C 84.49188995361328 120.1369171142578 80.47640991210938 121.3465805053711 76.39349365234375 122.1572799682617 C 72.20496368408203 122.9890670776367 67.89394378662109 123.4108276367188 63.58012771606445 123.4108276367188 Z" stroke="none" fill="#23536d"/>
    </g>
    <g id="Subtraction_7" data-name="Subtraction 7" transform="translate(340.482 64.288)" fill="#fff">
      <path d="M 45.10411071777344 87.05605316162109 C 42.07511138916016 87.05605316162109 39.0492057800293 86.76004028320312 36.11045455932617 86.17622375488281 C 33.2485237121582 85.60828399658203 30.43091201782227 84.75959014892578 27.73581695556641 83.65370941162109 C 25.09491157531738 82.56973266601562 22.54515838623047 81.22662353515625 20.15742874145508 79.6617431640625 C 17.79630088806152 78.11342620849609 15.57512378692627 76.33467102050781 13.55572319030762 74.37496948242188 C 11.5354642868042 72.41375732421875 9.703206062316895 70.25850677490234 8.109911918640137 67.96913146972656 C 6.499935150146484 65.65647125244141 5.11674690246582 63.18341445922852 3.998747110366821 60.61860275268555 C 2.861747026443481 58.01007461547852 1.98778235912323 55.27781295776367 1.401111721992493 52.49773406982422 C 0.8761110305786133 50.00537490844727 0.5767709612846375 47.44511795043945 0.5101027488708496 44.88011932373047 L 6.693832874298096 44.88011932373047 C 6.752256393432617 47.10121536254883 7.011399269104004 49.31565475463867 7.465358734130859 51.46970748901367 C 7.972170352935791 53.87723922729492 8.728452682495117 56.24574279785156 9.713171005249023 58.50935745239258 C 10.68093490600586 60.73363876342773 11.87768840789795 62.87668609619141 13.2701940536499 64.87898254394531 C 14.64894676208496 66.86338806152344 16.23320579528809 68.73011016845703 17.97885322570801 70.42708587646484 C 19.72407722473145 72.12299346923828 21.64386558532715 73.6627197265625 23.68497085571289 75.00355529785156 C 25.74558258056641 76.35646057128906 27.94895935058594 77.51879119873047 30.23398208618164 78.45834350585938 C 32.56205368041992 79.41558074951172 34.99667739868164 80.15015411376953 37.47020721435547 80.64166259765625 C 40.00666427612305 81.14673614501953 42.61991119384766 81.40283966064453 45.23714828491211 81.40283966064453 C 47.85483932495117 81.40283966064453 50.46832275390625 81.14673614501953 53.0049934387207 80.64162445068359 C 55.47705459594727 80.150390625 57.91165161132812 79.41582489013672 60.24095916748047 78.45836639404297 C 62.52671051025391 77.51850891113281 64.72986602783203 76.35615539550781 66.78929138183594 75.00357818603516 C 68.83107757568359 73.66276550292969 70.75091552734375 72.12300109863281 72.49545288085938 70.42708587646484 C 74.24111175537109 68.73075866699219 75.82563018798828 66.864013671875 77.20492553710938 64.87879180908203 C 78.59853363037109 62.87389755249023 79.79526519775391 60.73088455200195 80.76179504394531 58.50938034057617 C 81.74656677246094 56.24567413330078 82.50285339355469 53.87716674804688 83.00965118408203 51.4696044921875 C 83.53005218505859 48.99702835083008 83.79391479492188 46.4539680480957 83.79391479492188 43.91106033325195 C 83.79391479492188 41.36861419677734 83.53005218505859 38.82579040527344 83.00965118408203 36.35322570800781 C 82.50324249267578 33.94679260253906 81.74695587158203 31.57805061340332 80.76183319091797 29.31282615661621 C 79.79522705078125 27.09188461303711 78.59853363037109 24.94890975952148 77.20490264892578 22.94332122802734 C 75.82506561279297 20.95800399780273 74.24057006835938 19.09152030944824 72.49538421630859 17.39565086364746 C 70.75088500976562 15.69979095458984 68.83103942871094 14.16002655029297 66.78926086425781 12.81922626495361 C 64.72715759277344 11.46486186981201 62.52396011352539 10.30248546600342 60.24088668823242 9.364415168762207 C 57.91406631469727 8.407696723937988 55.47949981689453 7.672897338867188 53.00492477416992 7.180485248565674 C 50.51130676269531 6.684639930725098 47.94684219360352 6.428747653961182 45.38055801391602 6.419543266296387 L 45.38055801391602 0.5008264183998108 C 48.31373977661133 0.5183015465736389 51.2452278137207 0.8138082027435303 54.09787750244141 1.379861831665039 C 56.9615364074707 1.948803067207336 59.7794189453125 2.797720670700073 62.47312164306641 3.903014898300171 C 65.11856079101562 4.9891676902771 67.66805267333984 6.33223819732666 70.05066680908203 7.894896984100342 C 72.41551971435547 9.445685386657715 74.63667297363281 11.22420310974121 76.65245056152344 13.18105030059814 C 78.66928863525391 15.13827323913574 80.50178527832031 17.29354476928711 82.09911346435547 19.58706092834473 C 83.70993804931641 21.90190887451172 85.09288787841797 24.37497901916504 86.20944976806641 26.93739128112793 C 87.34716033935547 29.54661560058594 88.22111511230469 32.27882766723633 88.80709838867188 35.0582275390625 C 89.40834808349609 37.90924835205078 89.71319580078125 40.84301376342773 89.71319580078125 43.77802658081055 C 89.71319580078125 46.71306228637695 89.40834808349609 49.64681625366211 88.80711364746094 52.4977912902832 C 88.22112274169922 55.27788543701172 87.34716796875 58.01007461547852 86.20952606201172 60.6185188293457 C 85.09364318847656 63.18000411987305 83.71068572998047 65.65305328369141 82.09899139404297 67.96915435791016 C 80.50320434570312 70.26113128662109 78.67072296142578 72.41638946533203 76.65251159667969 74.37496948242188 C 74.63523101806641 76.33325958251953 72.41407775878906 78.11199188232422 70.05068969726562 79.66181182861328 C 67.66526794433594 81.22562408447266 65.11574554443359 82.56871795654297 62.47301864624023 83.65375518798828 C 59.7784309387207 84.75942993164062 56.96059417724609 85.60810852050781 54.09786605834961 86.17620086669922 C 51.15903091430664 86.76004028320312 48.13312530517578 87.05605316162109 45.10411071777344 87.05605316162109 Z" stroke="none"/>
      <path d="M 45.10411834716797 86.55605316162109 C 48.10046768188477 86.55605316162109 51.09359359741211 86.26326751708984 54.00054550170898 85.68576049804688 C 56.83165740966797 85.12395477294922 59.61838150024414 84.28463745117188 62.28311920166016 83.19122314453125 C 64.89649200439453 82.11824798583984 67.41767120361328 80.79009246826172 69.77650451660156 79.24369812011719 C 72.11345672607422 77.71121215820312 74.30968475341797 75.95245361328125 76.30429077148438 74.01613616943359 C 78.29955291748047 72.07986450195312 80.11112976074219 69.94921112060547 81.68858337402344 67.68354797363281 C 83.28153228759766 65.39440155029297 84.64834594726562 62.95025253295898 85.751220703125 60.41862487792969 C 86.87532043457031 57.84121322631836 87.73885345458984 55.14157485961914 88.31787109375 52.39462661743164 C 88.91195678710938 49.5775260925293 89.21319580078125 46.67848968505859 89.21319580078125 43.77802658081055 C 89.21319580078125 40.8775634765625 88.91195678710938 37.9785270690918 88.31785583496094 35.161376953125 C 87.73886871337891 32.41516494750977 86.87530517578125 29.71548843383789 85.75108337402344 27.13712692260742 C 84.64762878417969 24.60478973388672 83.28080749511719 22.16061401367188 81.68880462646484 19.8728141784668 C 80.10971832275391 17.60547637939453 78.29810333251953 15.47477626800537 76.30418395996094 13.53980159759521 C 74.31103515625 11.60492610931396 72.11480712890625 9.846401214599609 69.77645874023438 8.313014030456543 C 67.42041778564453 6.767776489257812 64.8992919921875 5.439651489257812 62.28330612182617 4.365589141845703 C 59.61939239501953 3.272501468658447 56.83259582519531 2.432951688766479 54.00055694580078 1.870301604270935 C 51.34179306030273 1.342723846435547 48.61398696899414 1.052744507789612 45.88055801391602 1.006561160087585 L 45.88055801391602 5.924394607543945 C 48.31237030029297 5.962984561920166 50.73878479003906 6.220084190368652 53.10250473022461 6.690101623535156 C 55.60868072509766 7.188801765441895 58.07439422607422 7.932989120483398 60.4309196472168 8.90192699432373 C 62.743408203125 9.85210132598877 64.97502136230469 11.02946376800537 67.063720703125 12.40128898620605 C 69.1319580078125 13.75946426391602 71.07672119140625 15.3192138671875 72.84383392333984 17.03707695007324 C 74.61195373535156 18.75521469116211 76.21735382080078 20.6463508605957 77.61550903320312 22.65800094604492 C 79.02781677246094 24.69047737121582 80.24061584472656 26.86230087280273 81.22035980224609 29.1134147644043 C 82.21893310546875 31.40960121154785 82.98555755615234 33.81077575683594 83.49893188476562 36.25024032592773 C 84.02642822265625 38.75656509399414 84.29390716552734 41.33403778076172 84.29390716552734 43.91106414794922 C 84.29390716552734 46.488525390625 84.02644348144531 49.06623840332031 83.49891662597656 51.57260131835938 C 82.98516845703125 54.01320266723633 82.21852874755859 56.41416549682617 81.22029113769531 58.7088623046875 C 80.24065399169922 60.96046447753906 79.02779388427734 63.13236236572266 77.61554718017578 65.16407775878906 C 76.21791839599609 67.17566680908203 74.61248016357422 69.06706237792969 72.84397125244141 70.78559112548828 C 71.07668304443359 72.50361633300781 69.13193511962891 74.06336212158203 67.06376647949219 75.42150115966797 C 64.97776031494141 76.79154205322266 62.74623107910156 77.96886444091797 60.43105697631836 78.92082977294922 C 58.07190704345703 79.89054870605469 55.60613250732422 80.63452911376953 53.10263061523438 81.13200378417969 C 50.53385543823242 81.64348602294922 47.88753128051758 81.90283966064453 45.23715591430664 81.90283966064453 C 42.58723068237305 81.90283966064453 39.94113159179688 81.64348602294922 37.37274551391602 81.132080078125 C 34.86761856079102 80.63429260253906 32.40181732177734 79.89030456542969 30.04383087158203 78.9207763671875 C 27.72940635681152 77.96912384033203 25.4976806640625 76.79182434082031 23.41045570373535 75.42145538330078 C 21.34303092956543 74.06333923339844 19.39836883544922 72.503662109375 17.63033103942871 70.78559112548828 C 15.86174392700195 69.06631469726562 14.25658130645752 67.17494964599609 12.859694480896 65.16443634033203 C 11.44845676422119 63.13517761230469 10.23555660247803 60.96321487426758 9.254681587219238 58.70881271362305 C 8.256494522094727 56.41426467895508 7.489856719970703 54.01330184936523 6.976106643676758 51.57282638549805 C 6.549087047576904 49.54656600952148 6.292129039764404 47.46804809570312 6.209985256195068 45.3801155090332 L 1.02640426158905 45.3801155090332 C 1.116744518280029 47.74299621582031 1.406602263450623 50.0980224609375 1.890344142913818 52.39450073242188 C 2.470031499862671 55.14150238037109 3.333619117736816 57.84127807617188 4.457094192504883 60.41881561279297 C 5.56196928024292 62.95354080200195 6.929006576538086 65.39768981933594 8.520306587219238 67.68351745605469 C 10.09534454345703 69.9466552734375 11.90670680999756 72.07728576660156 13.90394401550293 74.01613616943359 C 15.90060615539551 75.95380401611328 18.09686851501465 77.71260070800781 20.4315071105957 79.24356079101562 C 22.7927074432373 80.79105377197266 25.31411933898926 82.11922454833984 27.92560577392578 83.19113922119141 C 30.59098243713379 84.28481292724609 33.37748336791992 85.12413024902344 36.20788192749023 85.68579864501953 C 39.11463165283203 86.26326751708984 42.10775756835938 86.55605316162109 45.10411834716797 86.55605316162109 M 45.10411834716797 87.55605316162109 C 42.04243087768555 87.55605316162109 38.98375701904297 87.25679779052734 36.01303100585938 86.66664123535156 C 33.11964416503906 86.09246063232422 30.27093124389648 85.23439788818359 27.54599380493164 84.11628723144531 C 24.87565612792969 83.02021789550781 22.29756927490234 81.66217803955078 19.88335609436035 80.07994079589844 C 17.49569320678711 78.51421356201172 15.24960613250732 76.71551513671875 13.20751953125 74.73377990722656 C 11.164231300354 72.75022888183594 9.311081886291504 70.57036590576172 7.699519157409668 68.25473785400391 C 6.070831775665283 65.91521453857422 4.671494007110596 63.41326522827148 3.540394067764282 60.81840133666992 C 2.38991904258728 58.17891311645508 1.505556583404541 55.41418838500977 0.9118940830230713 52.60097503662109 C 0.3456190824508667 49.91271591186523 0.03880658745765686 47.14681243896484 6.585693427041406e-06 44.3801155090332 L 7.184106349945068 44.3801155090332 C 7.214468955993652 46.73306274414062 7.473443984985352 49.08340072631836 7.95461893081665 51.36661529541016 C 8.454494476318359 53.74118804931641 9.200407028198242 56.07723999023438 10.17166900634766 58.30990219116211 C 11.1263313293457 60.50405120849609 12.30694389343262 62.6181640625 13.6806812286377 64.59349060058594 C 15.04129409790039 66.55180358886719 16.60466957092285 68.39389038085938 18.32736968994141 70.06856536865234 C 20.0499439239502 71.74245452880859 21.94486999511719 73.26222991943359 23.95949363708496 74.58565521240234 C 25.99338150024414 75.92101287841797 28.16839408874512 77.06840515136719 30.42411994934082 77.99591064453125 C 32.72238159179688 78.94087982177734 35.12580490112305 79.66603851318359 37.56764221191406 80.15125274658203 C 40.07223129272461 80.64996337890625 42.65261840820312 80.90283966064453 45.23715591430664 80.90283966064453 C 47.8221321105957 80.90283966064453 50.40275573730469 80.64996337890625 52.90734481811523 80.15125274658203 C 55.34789276123047 79.66629028320312 57.7513313293457 78.94113922119141 60.05086898803711 77.99591064453125 C 62.30720520019531 77.06815338134766 64.48197937011719 75.92076110839844 66.51480865478516 74.58565521240234 C 68.53012084960938 73.26222991943359 70.42504119873047 71.74245452880859 72.14693450927734 70.06856536865234 C 73.86965942382812 68.39452362060547 75.43325805664062 66.55243682861328 76.79430389404297 64.59349060058594 C 78.16923522949219 62.6154899597168 79.34984588623047 60.50137710571289 80.30332183837891 58.30990219116211 C 81.27459716796875 56.07720184326172 82.02051544189453 53.74114990234375 82.52037048339844 51.36661529541016 C 83.03364562988281 48.92790222167969 83.29390716552734 46.41950225830078 83.29390716552734 43.91106414794922 C 83.29390716552734 41.4030876159668 83.03364562988281 38.89490127563477 82.52037048339844 36.45620346069336 C 82.02088165283203 34.08271408081055 81.27494049072266 31.74642562866211 80.30332183837891 29.51222610473633 C 79.34984588623047 27.32143974304199 78.16923522949219 25.20731353759766 76.79430389404297 23.22863960266113 C 75.43276977539062 21.2696647644043 73.86917114257812 19.42780113220215 72.14693450927734 17.75423812866211 C 70.42504119873047 16.08035087585449 68.53012084960938 14.56058883666992 66.51480865478516 13.23716449737549 C 64.47924041748047 11.90023899078369 62.30447006225586 10.75286388397217 60.05086898803711 9.826889038085938 C 57.75371932983398 8.882376670837402 55.35028076171875 8.156989097595215 52.90734481811523 7.670876502990723 C 50.39930725097656 7.172151565551758 47.81869506835938 6.919289112091064 45.23715591430664 6.919289112091064 C 45.11833190917969 6.919289112091064 44.99937057495117 6.919826507568359 44.88055801391602 6.920901775360107 L 44.88055801391602 0.0005890807951800525 C 44.91027069091797 0.0001015808084048331 44.93954467773438 6.408081389963627e-05 44.96881866455078 6.408081389963627e-05 C 44.97433090209961 6.408081389963627e-05 44.9798583984375 6.408081389963627e-05 44.98538208007812 6.408081389963627e-05 L 45.04465484619141 2.658081029949244e-05 L 45.10411834716797 1.580810589985049e-06 C 48.16229248046875 1.580810589985049e-06 51.22097015380859 0.2992515861988068 54.19519424438477 0.889426589012146 C 57.09050750732422 1.464651584625244 59.93945693969727 2.32292652130127 62.66291809082031 3.440438985824585 C 65.33779144287109 4.538676738739014 67.91567230224609 5.896701812744141 70.32488250732422 7.476814270019531 C 72.71613311767578 9.044889450073242 74.96219635009766 10.84336376190186 77.00071716308594 12.82227611541748 C 79.0404052734375 14.80167675018311 80.89379119873047 16.98153877258301 82.50940704345703 19.30130195617676 C 84.13905334472656 21.64322662353516 85.53815460205078 24.14516448974609 86.66783142089844 26.73765182495117 C 87.81901550292969 29.37785148620605 88.70338439941406 32.1425895690918 89.29634094238281 34.955078125 C 89.90473175048828 37.83993911743164 90.21319580078125 40.80840301513672 90.21319580078125 43.77802658081055 C 90.21319580078125 46.74763870239258 89.90473175048828 49.71611404418945 89.29634094238281 52.60097503662109 C 88.70338439941406 55.41415023803711 87.81901550292969 58.17889022827148 86.66783142089844 60.81840133666992 C 85.53891754150391 63.4097900390625 84.13981628417969 65.91173553466797 82.50940704345703 68.25473785400391 C 80.89527130126953 70.57308959960938 79.04188537597656 72.75295257568359 77.00071716308594 74.73377990722656 C 74.96076965332031 76.71408843994141 72.71468353271484 78.51278686523438 70.32488250732422 80.07994079589844 C 67.91287231445312 81.66117858886719 65.33502197265625 83.01920318603516 62.66291809082031 84.11628723144531 C 59.93841934204102 85.23423004150391 57.08945846557617 86.09229278564453 54.19519424438477 86.66664123535156 C 51.22446823120117 87.25679779052734 48.16580581665039 87.55605316162109 45.10411834716797 87.55605316162109 Z" stroke="none" fill="#23536d"/>
    </g>
    <rect id="Rectangle_7" data-name="Rectangle 7" width="190.488" height="59.432" transform="translate(290.119 72.856)" fill="#fff"/>
    <g transform="matrix(1, 0, 0, 1, 259, 13.75)" filter="url(#ECO_MAT)">
      <text id="ECO_MAT-2" data-name="ECO MAT" transform="translate(125 106.85)" fill="#23536d" font-size="50" font-family="Montserrat-Bold, Montserrat" font-weight="700"><tspan x="-120.45" y="0">ECO MAT</tspan></text>
    </g>
  </g>
</svg>
